<mxfile host="app.diagrams.net" modified="2023-09-08T14:32:45.966Z" agent="Mozilla/5.0 (X11; Linux x86_64) AppleWebKit/537.36 (KHTML, like Gecko) Chrome/116.0.0.0 Safari/537.36" version="21.6.8" etag="Bg8-D8rKcpzY8To2m8ML" type="github">
  <diagram name="Page-1" id="8pf5Pkqtdo9ct17JGL75">
    <mxGraphModel>
      <root>
        <mxCell id="0" />
        <mxCell id="1" parent="0" />
      </root>
    </mxGraphModel>
  </diagram>
</mxfile>
